<?xml version="1.0" encoding="UTF-8"?>
<!-- Generator: Adobe Illustrator 25.3.0, SVG Export Plug-In . SVG Version: 6.00 Build 0)  -->
<svg version="1.1" id="레이어_2" xmlns="http://www.w3.org/2000/svg" xmlns:xlink="http://www.w3.org/1999/xlink" x="0px" y="0px" viewBox="0 0 185.76 63.92" style="enable-background:new 0 0 185.76 63.92;" xml:space="preserve">
<style type="text/css">
	.st0{fill-rule:evenodd;clip-rule:evenodd;fill:#0068B7;}
	.st1{fill-rule:evenodd;clip-rule:evenodd;fill:#00AC97;}
	.st2{fill-rule:evenodd;clip-rule:evenodd;fill:#F3981C;}
</style>
<g>
	<g>
		<g>
			<path d="M166.54,23.37c0,7.23,0.75,12.53,2.26,15.89c1.35,3,3.46,4.73,6.34,5.2v4.62c-2.48-0.28-4.63-1.14-6.46-2.58     c-2-1.57-3.55-3.76-4.67-6.58c-1.14,2.75-2.8,4.94-4.99,6.58c-1.89,1.41-3.95,2.27-6.18,2.58v-4.58     c2.88-0.51,5.02-2.26,6.42-5.23c1.56-3.36,2.34-8.66,2.34-15.89H166.54z"/>
			<rect x="181.07" y="23.37" width="4.69" height="32.36"/>
		</g>
		<path d="M97.36,46.83V23.37h4.69v9.93h4.73v3.99h-4.73v18.45h-4.69v-4.92H69.09v-3.99h5.98V35.7h4.69v11.12h6.1V27.35H70.71v-3.99    h19.85v23.46H97.36z"/>
		<path d="M134.22,28.6h-7.48c0.16,2,0.77,3.64,1.82,4.93c1.32,1.54,3.27,2.46,5.86,2.77v4.27c-1.91-0.02-3.72-0.41-5.42-1.15    c-2.02-0.85-3.6-2.08-4.73-3.7c-1.16,1.59-2.83,2.83-5.01,3.73c-1.81,0.74-3.57,1.12-5.29,1.12v-4.27    c2.67-0.31,4.65-1.23,5.94-2.77c1.02-1.26,1.62-2.9,1.78-4.93h-7.52v-3.91h7.6v-3.12h5v3.12h7.44V28.6z M115.68,44.51h4.69v7.24    h25.79v3.99h-27.67c-0.94,0-1.63-0.22-2.09-0.66c-0.48-0.47-0.72-1.22-0.72-2.25V44.51z M141.17,29.46v-6.12h4.69V45.3h-4.69    V33.44h-5.62v-3.99H141.17z"/>
	</g>
	<g>
		<g>
			<path class="st0" d="M35.53,24.08c1.48,4.08,2.18,8.54,1.71,13.14c-0.49,4.79-2.1,9.19-4.53,12.98     c4.96,8.99,15.21,13.23,15.78,13.54c0.49,0.26,0.92,0.24,1.08-0.04c0.19-0.33-0.07-0.73-0.45-0.95     c-0.73-0.43-1.39-0.68-2.87-1.89c-0.91-0.75-1.67-2.19-1.65-4.23c0.05-4.62,4.07-5.66,3.99-10.89c-0.05-3.08-1.29-4.4-1.18-6.94     c0.16-3.41,6.75-5.53,8.69-10.88c1.95-5.38,0.96-11.68,6.2-16.54C50.37,11.98,41,17.03,35.53,24.08z"/>
		</g>
		<g>
			<path class="st1" d="M0,11.38c5.23,4.87,3.29,10.01,6.2,16.54c2.32,5.2,8.53,7.47,8.69,10.88c0.12,2.54-1.12,3.86-1.18,6.94     c-0.08,5.23,4.07,5.98,3.99,10.89c7.12-7.7,11.65-16.71,4.65-28.35c12.17,11.57,1.64,28.13-9.17,34.47     c-0.38,0.22-0.64,0.62-0.45,0.95c0.16,0.28,0.58,0.3,1.08,0.04c0.73-0.39,17.52-7.32,18.38-22.49     C33.03,26.44,20.41,12.41,0,11.38z"/>
		</g>
		<g>
			<path class="st2" d="M37.21,3.45c-0.37,1.49-1.88,2.41-3.37,2.05c-1.5-0.37-2.41-1.88-2.05-3.37c0.37-1.49,1.88-2.41,3.37-2.04     C36.66,0.44,37.57,1.95,37.21,3.45z"/>
			<path class="st2" d="M31,13.34c-1.29-0.26-2.13-1.52-1.87-2.82c0.26-1.3,1.52-2.14,2.82-1.88c1.29,0.26,2.14,1.53,1.87,2.82     C33.56,12.76,32.29,13.6,31,13.34z"/>
			<path class="st2" d="M25.77,19.84c-1.09-0.16-1.85-1.17-1.7-2.27c0.16-1.1,1.17-1.86,2.27-1.7c1.1,0.16,1.85,1.17,1.69,2.27     C27.88,19.24,26.86,20,25.77,19.84z"/>
			<path class="st2" d="M18.68,24.34c-0.89-0.05-1.58-0.82-1.52-1.72c0.06-0.89,0.82-1.58,1.72-1.52c0.89,0.06,1.58,0.82,1.52,1.72     C20.34,23.71,19.57,24.39,18.68,24.34z"/>
			<path class="st2" d="M10.43,26.32c-0.69,0.05-1.29-0.47-1.34-1.17c-0.05-0.69,0.47-1.3,1.17-1.34c0.69-0.05,1.29,0.47,1.34,1.16     C11.65,25.67,11.13,26.27,10.43,26.32z"/>
		</g>
	</g>
</g>
</svg>