<?xml version="1.0" encoding="utf-8"?>
<!-- Generator: Adobe Illustrator 25.2.0, SVG Export Plug-In . SVG Version: 6.00 Build 0)  -->
<svg version="1.1" id="Layer_1" xmlns="http://www.w3.org/2000/svg" xmlns:xlink="http://www.w3.org/1999/xlink" x="0px" y="0px"
	 viewBox="0 0 213 44" style="enable-background:new 0 0 213 44;" xml:space="preserve">
<style type="text/css">
	.st0{fill:#0056C1;}
</style>
<g>
	<path d="M22.8,5.2c-0.6,5.2-2.3,10-5.1,14.5l8.5,8.1l-3.5,4.3l-8.2-8.1c-2.9,3.4-6.3,6.3-10.4,8.8l-3.7-4.8
		c3.8-2.1,7.1-4.7,9.8-7.7s4.5-6.2,5.5-9.6v-0.2h-13V5.2H22.8z M29.1,38.7V0.3H35v38.4H29.1z"/>
	<path d="M76.2,15.7v4.8h-38v-4.8h24.6c0.7-3.1,1.1-6.1,1.2-8.8H43.5v-5H70c-0.2,5.2-0.8,9.8-1.8,13.8H76.2z M70.2,38.5h-26V23.8h26
		V38.5z M64.3,28.2H49.9v5.6h14.4V28.2z"/>
	<path d="M78.5,42.9c2.2-2.5,3.3-5.3,3.3-8.4c0-1-0.3-1.9-0.8-2.7s-1.2-1.2-2.1-1.4c0.1-1.1,0.5-2,1.2-2.8c0.7-0.8,1.7-1.2,2.9-1.2
		c1.3,0,2.4,0.4,3.2,1.3s1.2,2.1,1.2,3.8c0,2.2-0.5,4.5-1.6,6.8c-1.1,2.3-2.4,4.1-3.9,5.4L78.5,42.9z"/>
	<path class="st0" d="M111.5,27.6c4.6-0.3,8.7-0.9,12.4-1.8l0.6,5.1c-3.5,0.8-7.3,1.4-11.4,1.8c-4.1,0.4-8.7,0.6-13.8,0.6L98.7,28
		c2.6,0,5.1,0,7.5-0.1V16.1h5.3V27.6z M114.6,23c0.4-1.9,0.7-4,1-6.3c0.2-2.3,0.3-4.5,0.3-6.5h-15.1V5h20.4c0,7.3-0.4,13.4-1.3,18.4
		L114.6,23z M131.5,16.1h5.7v5.8h-5.7v16.8h-5.7V0.3h5.7V16.1z"/>
	<path class="st0" d="M150.1,21.2c-2.9,2.3-6.4,4.2-10.4,5.5l-2.6-4.4c3.4-1,6.2-2.3,8.6-3.9c2.4-1.5,4.2-3.2,5.4-5.1v-0.2h-12.1
		V8.6h19c-0.6,3.3-2,6.4-4.3,9.1l7,4.1l-2.7,4L150.1,21.2z M141.5,1.6h14.4V6h-14.4V1.6z M151.2,26.6v6.7h21.6v5.1h-27.4V26.6H151.2
		z M171.4,29h-5.9V17.8h-7.2v-5.1h7.2V0.3h5.9V29z"/>
	<path class="st0" d="M212.6,24.2h-38v-4.9h38V24.2z M183.4,14.9c-2.5-1.4-3.7-3.3-3.7-5.8c0-1.6,0.6-3,1.7-4.2
		c1.1-1.2,2.7-2.1,4.8-2.7c2.1-0.6,4.6-1,7.4-1c2.9,0,5.4,0.3,7.4,1s3.7,1.6,4.8,2.7s1.7,2.6,1.7,4.2c0,2.5-1.2,4.4-3.7,5.8
		c-2.5,1.4-5.9,2.1-10.2,2.1S185.8,16.3,183.4,14.9z M207.5,38.3h-26.8V26.4h5.9v6.8h20.8V38.3z M200.3,11c0.6-0.5,0.8-1.1,0.8-1.9
		c0-0.8-0.3-1.4-0.8-1.8c-1.5-1-3.7-1.4-6.7-1.4c-3.1,0-5.3,0.5-6.7,1.4c-0.6,0.4-0.8,1-0.8,1.8c0,0.8,0.3,1.4,0.8,1.9
		c1.4,1,3.7,1.4,6.7,1.4C196.6,12.4,198.9,11.9,200.3,11z"/>
</g>
</svg>
