<?xml version="1.0" encoding="utf-8"?>
<!-- Generator: Adobe Illustrator 25.2.0, SVG Export Plug-In . SVG Version: 6.00 Build 0)  -->
<svg version="1.1" id="Layer_1" xmlns="http://www.w3.org/2000/svg" xmlns:xlink="http://www.w3.org/1999/xlink" x="0px" y="0px"
	 viewBox="0 0 350 44" style="enable-background:new 0 0 350 44;" xml:space="preserve">
<style type="text/css">
	.st0{fill:#F65237;}
</style>
<g>
	<path d="M12.8,29.9c4.6-0.3,8.7-0.9,12.4-1.8l0.6,5.1c-3.5,0.8-7.3,1.4-11.4,1.8c-4.1,0.4-8.7,0.6-13.8,0.6L0,30.3
		c2.6,0,5.1,0,7.5-0.1V18.4h5.3V29.9z M15.9,25.3c0.4-1.9,0.7-4,1-6.3c0.2-2.3,0.3-4.5,0.3-6.5H2.1V7.3h20.4
		c0,7.3-0.4,13.4-1.3,18.4L15.9,25.3z M32.8,18.4h5.7v5.8h-5.7V41h-5.7V2.6h5.7V18.4z"/>
	<path d="M51.4,23.5C48.5,25.9,45,27.7,41,29l-2.6-4.4c3.4-1,6.2-2.3,8.6-3.9c2.4-1.5,4.2-3.2,5.4-5.1v-0.2H40.2v-4.5h19
		c-0.6,3.3-2,6.4-4.3,9.1l7,4.1l-2.7,4L51.4,23.5z M42.8,3.9h14.4v4.3H42.8V3.9z M52.5,28.9v6.7H74v5.1H46.6V28.9H52.5z M72.7,31.3
		h-5.9V20.1h-7.2v-5.1h7.2V2.6h5.9V31.3z"/>
	<path class="st0" d="M76.3,9.8h18.6v4.3H76.3V9.8z M91.6,25.6c-1.4,1-3.4,1.5-5.8,1.5c-2.4,0-4.3-0.5-5.7-1.5
		c-1.4-1-2.1-2.4-2.1-4.2c0-1.7,0.7-3.1,2.1-4.1c1.4-1,3.3-1.5,5.7-1.5c2.4,0,4.3,0.5,5.7,1.5c1.5,1,2.2,2.4,2.2,4.1
		C93.8,23.2,93,24.6,91.6,25.6z M79.4,3.7h12.8v3.9H79.4V3.7z M83.5,22.9c0.6,0.3,1.4,0.5,2.4,0.5s1.9-0.2,2.4-0.5
		c0.6-0.3,0.9-0.9,0.9-1.6c0-0.7-0.3-1.2-0.9-1.5c-0.6-0.4-1.4-0.5-2.4-0.5c-1,0-1.8,0.2-2.4,0.5c-0.6,0.4-0.9,0.9-0.9,1.5
		C82.6,22,82.9,22.5,83.5,22.9z M107.6,29.3c2.4,1.2,3.6,2.9,3.6,5.1c0,2.3-1.2,4-3.6,5.2c-2.4,1.2-5.8,1.8-10.1,1.8
		c-4.4,0-7.8-0.6-10.1-1.8c-2.4-1.2-3.6-2.9-3.6-5.2c0-2.2,1.2-3.9,3.6-5.1c2.4-1.2,5.8-1.8,10.1-1.8
		C101.8,27.5,105.2,28.1,107.6,29.3z M105,34.4c0-0.7-0.3-1.3-0.9-1.6c-1.5-0.7-3.7-1-6.6-1c-2.9,0-5,0.3-6.6,1
		c-0.6,0.3-0.9,0.8-0.9,1.6c0,0.7,0.3,1.2,0.9,1.6c1.4,0.6,3.6,1,6.6,1c2.8,0,5-0.3,6.6-1C104.7,35.6,105,35,105,34.4z M106.1,13.4
		V2.6h5.4v25.3h-5.4v-9.5h-4.3v7.7h-5.3V3.4h5.3v10H106.1z"/>
	<path class="st0" d="M129.9,6.5c-0.2,4-0.8,7.8-1.8,11.3l10.4,11.3l-3.8,4.3l-8.7-9.7c-1.9,4.2-4.5,7.9-7.6,11l-4.7-4.2
		c3.1-2.8,5.5-6.2,7.3-10.2c1.8-4,2.7-8.7,2.9-13.9L129.9,6.5z M146.9,18.2h5.6V24h-5.6v17h-5.8V2.6h5.8V18.2z"/>
	<path class="st0" d="M170.1,5.5c-0.2,4.8-1.7,8.9-4.4,12.2s-6.4,5.8-11.2,7.7l-2.6-4.1c3.7-1.1,6.7-2.7,8.9-4.8l-7.7,0.4l-0.2-4.1
		l11-0.2c0.4-0.8,0.8-1.7,1-2.5V9.9H154V5.5H170.1z M167.1,34.3v2.6H189v4.2h-27.9V30.5h20.4v-2.4h-21.2V24h27.2v10.3H167.1z
		 M182.1,15.6h-4.3v6.7h-5.3V3.4h5.3v7.4h4.3V2.6h5.4v19.7h-5.4V15.6z"/>
	<path class="st0" d="M192.6,14.3h14.2v-3.4h-14.6V6.2h19.9v12.2h-14v4.1c8,0,14.9-0.8,20.6-2.4V2.6h5.9v28.7h-5.9v-7
		c-2.9,0.9-6.4,1.6-10.5,2.1c-4.1,0.5-9.4,0.7-15.7,0.7V14.3z M204.5,29v6.6H226v5.1h-27.4V29H204.5z"/>
	<path class="st0" d="M236.6,28.5c1.8,0,4.3-0.1,7.4-0.4s5.9-0.6,8.1-1.1l0.6,5.3c-5.3,1.1-12.6,1.7-22,1.7V7.3h19.2v5.4h-13.3
		L236.6,28.5z M256.8,17.1V2.6h5.9V41h-5.9V22.6h-10.4v-5.4H256.8z"/>
</g>
</svg>
